<svg xmlns="http://www.w3.org/2000/svg" xmlns:xlink="http://www.w3.org/1999/xlink" id="Capa_1" x="0px" y="0px" viewBox="0 0 381.627 381.627" style="enable-background:new 0 0 381.627 381.627;" xml:space="preserve">
<g>
	<g>
		<path d="M348.065,77.7h-82.102c-4.732-29.141-36.611-51.754-75.148-51.754c-38.539,0-70.428,22.611-75.16,51.754H33.563    C15.057,77.7,0,92.757,0,111.263v183.309c0,18.506,15.057,33.563,33.563,33.563h29.99c3.377,15.721,17.369,27.547,34.084,27.547    c16.717,0,30.707-11.826,34.084-27.547h118.176c3.379,15.723,17.377,27.547,34.094,27.547s30.709-11.824,34.086-27.547h29.988    c18.508,0,33.563-15.057,33.563-33.563V111.263C381.627,92.757,366.572,77.7,348.065,77.7z M366.627,272.439    c-20.906,3.24-37.467,19.789-40.707,40.695H55.709C52.469,292.23,35.906,275.691,15,272.45V133.413    c20.91-3.24,37.473-19.803,40.713-40.713h270.231c3.24,20.902,19.783,37.445,40.684,40.688V272.439z M157.92,77.7    c5.299-6.766,17.359-12.459,32.895-12.459c15.533,0,27.596,5.693,32.893,12.459H157.92z M348.065,92.7    c10.236,0,18.563,8.328,18.563,18.563v6.873c-12.615-2.873-22.564-12.818-25.435-25.436H348.065z M190.815,40.946    c30.004,0,54.982,15.914,59.893,36.754h-10.193c-4.865-15.881-24.949-27.459-49.699-27.459c-24.752,0-44.836,11.578-49.701,27.459    h-10.197C135.826,56.86,160.809,40.946,190.815,40.946z M15,111.263C15,101.028,23.328,92.7,33.563,92.7h6.873    C37.565,105.317,27.617,115.265,15,118.138V111.263z M33.563,313.134c-10.234,0-18.563-8.328-18.563-18.563v-6.877    c12.617,2.873,22.565,12.82,25.438,25.439H33.563z M97.637,340.681c-8.369,0-15.518-5.209-18.439-12.547h36.871    C113.147,335.472,106.004,340.681,97.637,340.681z M283.99,340.681c-8.367,0-15.514-5.209-18.434-12.547h36.898    C299.531,335.476,292.361,340.681,283.99,340.681z M366.627,294.571c0,10.234-8.326,18.563-18.563,18.563h-6.877    c2.873-12.617,12.822-22.568,25.439-25.439V294.571z"></path>
		<path d="M222.299,141.173c-11.941,0-22.844,5.143-31.484,14.678c-8.641-9.535-19.545-14.678-31.486-14.678    c-19.932,0-38.135,15.039-43.279,35.76c-2.717,10.938-3.17,28.322,10.098,49.02c11.998,18.717,32.574,35.879,61.158,51.01    c1.098,0.582,2.303,0.871,3.51,0.871c1.205,0,2.41-0.289,3.508-0.871c28.584-15.129,49.158-32.291,61.156-51.008    c13.266-20.699,12.812-38.084,10.096-49.021C260.43,156.212,242.229,141.173,222.299,141.173z M190.815,261.814    c-65.58-35.975-62.709-71.193-60.209-81.266c3.508-14.123,15.588-24.375,28.723-24.375c9.734,0,18.654,5.717,25.119,16.096    c1.369,2.199,3.777,3.535,6.367,3.535c2.59,0,4.996-1.336,6.365-3.535c6.465-10.379,15.387-16.096,25.119-16.096    c13.133,0,25.211,10.252,28.719,24.375C253.52,190.62,256.389,225.841,190.815,261.814z"></path>
	</g>
</g>
<g>
</g>
<g>
</g>
<g>
</g>
<g>
</g>
<g>
</g>
<g>
</g>
<g>
</g>
<g>
</g>
<g>
</g>
<g>
</g>
<g>
</g>
<g>
</g>
<g>
</g>
<g>
</g>
<g>
</g>
</svg>