<svg xmlns="http://www.w3.org/2000/svg" viewBox="0 0 128 128"><title></title><g data-name="Champagne" id="8d89ef44-2c63-4867-ab5e-d4fcc13c4ee9"><rect fill="#ccc" height="38" transform="translate(30.93 -3.68) rotate(18.2)" width="4" x="24.96" y="75.71"></rect><path d="M61,29.59,47.28,77.71a14,14,0,0,1-17.07,9.11l-.6-.18A14,14,0,0,1,20.69,69L38.2,22.09l14.71,4.84Z" fill="#ccc"></path><path d="M27.67,56,22.59,69.59a12,12,0,0,0,22.77,7.57L51.4,56Z" fill="#fe9f59"></path><ellipse cx="21.02" cy="112.76" fill="#ccc" rx="2" ry="11" transform="translate(-92.66 97.52) rotate(-71.8)"></ellipse><rect fill="#ccc" height="38" transform="translate(227.69 152.96) rotate(161.8)" width="4" x="99.6" y="75.71"></rect><path d="M98.94,86.64h0A14,14,0,0,0,107.87,69L90.36,22.09l-22.8,7.5L81.27,77.71A14,14,0,0,0,98.94,86.64Z" fill="#ccc"></path><path d="M100.89,56,106,69.59A12,12,0,0,1,83.2,77.16L77.16,56Z" fill="#fe5959"></path><ellipse cx="107.53" cy="112.76" fill="#ccc" rx="11" ry="2" transform="translate(-29.84 39.22) rotate(-18.2)"></ellipse><path d="M38,53c15-2,13.38,3,13.38,3h0a23.78,23.78,0,0,1-17,1.8L27.67,56C30,54,30.07,54.06,38,53Z" fill="#fe852b"></path><path d="M100.89,56l-6.71,2c-5.68,1.52-17-2-17-2s-1.55-4.83,13.45-2.83C98.53,54.22,98.56,54,100.89,56Z" fill="#fe3838"></path><circle cx="36" cy="73" fill="#fe8c38" r="2"></circle><circle cx="40" cy="66" fill="#fe8c38" r="3"></circle><circle cx="36.5" cy="80.5" fill="#fe8c38" r="1.5"></circle><circle cx="27.5" cy="71.5" fill="#fe8c38" r="1.5"></circle><circle cx="91" cy="73" fill="#fe3838" r="2"></circle><circle cx="87" cy="66" fill="#fe3838" r="3"></circle><circle cx="90.5" cy="80.5" fill="#fe3838" r="1.5"></circle><circle cx="99.5" cy="71.5" fill="#fe3838" r="1.5"></circle><line fill="none" stroke="#e6e6e6" stroke-linecap="round" stroke-linejoin="round" stroke-width="2" x1="58.13" x2="54.5" y1="31.63" y2="42.38"></line><line fill="none" stroke="#e6e6e6" stroke-linecap="round" stroke-linejoin="round" stroke-width="2" x1="70.75" x2="74.37" y1="32.12" y2="42.88"></line><line fill="none" stroke="#fe3838" stroke-linecap="round" stroke-linejoin="round" stroke-width="2" x1="64" x2="64" y1="11.17" y2="17.17"></line><line fill="none" stroke="#fe3838" stroke-linecap="round" stroke-linejoin="round" stroke-width="2" x1="54.8" x2="59.04" y1="15.13" y2="19.37"></line><line fill="none" stroke="#fe3838" stroke-linecap="round" stroke-linejoin="round" stroke-width="2" x1="73.54" x2="69.3" y1="15.13" y2="19.37"></line><path d="M17.5,103S12.06,88.29,24,89.5c16.5,1.67,41.33,37.75,53.25,13,6.87-14.27-14.11-13.9-13.75-4.33.67,17.83,38.64,9.29,48.25-1.92,7.44-8.67-6.25-8.75-6.25-8.75" fill="none" stroke="#fe3838" stroke-linecap="round" stroke-linejoin="round" stroke-width="2"></path></g></svg>