<svg xmlns="http://www.w3.org/2000/svg" xmlns:xlink="http://www.w3.org/1999/xlink" id="Capa_1" x="0px" y="0px" viewBox="0 0 423.233 423.233" style="enable-background:new 0 0 423.233 423.233;" xml:space="preserve">
<g>
	<g>
		<g>
			<path d="M421.882,248.816c-4.754-21.039-21.831-37.206-42.645-41.729c-5.203-38.362-23.345-73.692-51.85-100.49     c-31.535-29.647-72.75-45.976-116.054-45.976c-43.118,0-84.204,16.206-115.69,45.632c-28.73,26.852-47.032,62.387-52.235,100.974     c-20.548,4.697-37.35,20.75-42.059,41.59c-2.83,12.526-2.59,32.352,14.629,55.663c15.524,21.018,41.57,40.33,77.415,57.402     c1.02,0.484,2.122,0.728,3.225,0.728c1.103,0,2.205-0.244,3.225-0.728c35.844-17.07,61.889-36.383,77.412-57.401     c17.218-23.313,17.458-43.138,14.627-55.665c-4.557-20.163-20.432-35.849-40.068-41.101     c7.495-26.102,31.299-44.602,59.534-44.602c27.841,0,51.97,18.883,59.523,44.759c-19.383,5.396-35.008,20.97-39.52,40.944     c-2.83,12.526-2.59,32.352,14.629,55.663c15.524,21.018,41.57,40.33,77.415,57.402c1.02,0.484,2.122,0.728,3.225,0.728     c1.102,0,2.205-0.244,3.225-0.728c35.844-17.07,61.889-36.383,77.412-57.401C424.473,281.169,424.713,261.344,421.882,248.816z      M245.981,252.123c4.1-18.14,20.859-31.307,39.851-31.307c13.555,0,25.85,6.978,34.62,19.647     c1.401,2.024,3.706,3.232,6.167,3.232c2.461,0,4.766-1.207,6.166-3.23c8.772-12.67,21.067-19.648,34.621-19.648     c18.989,0,35.746,13.167,39.846,31.307c7.059,31.237-23.036,66.48-80.633,94.66C269.02,318.601,238.923,283.359,245.981,252.123z      M96.618,346.783c-57.599-28.181-87.695-63.423-80.638-94.66c4.1-18.14,20.859-31.307,39.85-31.307     c13.555,0,25.85,6.978,34.62,19.647c1.401,2.024,3.706,3.232,6.167,3.232c2.461,0,4.766-1.207,6.166-3.23     c8.771-12.67,21.067-19.648,34.621-19.648c18.989,0,35.746,13.167,39.846,31.307C184.31,283.36,154.215,318.603,96.618,346.783z      M105.013,216.654c-2.958,2.206-5.768,4.725-8.395,7.563c-2.501-2.702-5.171-5.108-7.974-7.238     C89.982,154.468,144.513,104,211.369,104c66.99,0,121.604,50.673,122.728,113.359c-2.621,2.036-5.125,4.315-7.478,6.857     c-2.779-3.003-5.758-5.657-8.907-7.952c-1.729-53.755-48.761-96.986-106.343-96.986     C153.646,119.278,106.527,162.72,105.013,216.654z M211.333,75.622c76.42,0,140.92,56.209,152.575,130.316     c-5.267,0.334-10.354,1.424-15.196,3.225C343.212,142.033,283.716,89,211.369,89c-72.285,0-131.733,52.944-137.322,119.991     c-4.87-1.758-9.983-2.816-15.275-3.096C70.464,131.875,135.104,75.622,211.333,75.622z M263.633,168.588     c-14.267-13.203-32.835-20.474-52.285-20.474c-19.357,0-37.862,7.211-52.104,20.305c-11.038,10.148-18.755,23.139-22.433,37.413     c-5.571,0.06-10.967,0.942-16.1,2.62c5.758-41.779,44.213-74.174,90.656-74.174c46.382,0,84.792,32.314,90.625,74.014     c-5.146-1.622-10.545-2.471-16.122-2.475C282.214,191.631,274.575,178.714,263.633,168.588z"></path>
		</g>
	</g>
</g>
<g>
</g>
<g>
</g>
<g>
</g>
<g>
</g>
<g>
</g>
<g>
</g>
<g>
</g>
<g>
</g>
<g>
</g>
<g>
</g>
<g>
</g>
<g>
</g>
<g>
</g>
<g>
</g>
<g>
</g>
</svg>