<svg xmlns="http://www.w3.org/2000/svg" xmlns:xlink="http://www.w3.org/1999/xlink" id="Capa_1" x="0px" y="0px" viewBox="0 0 379.945 379.945" style="enable-background:new 0 0 379.945 379.945;" xml:space="preserve">
<g>
	<g>
		<path d="M321.586,170.454c-1.996,0-3.971,0.102-5.918,0.299l-12.9-54.988l21.572-8.512c3.853-1.521,5.744-5.877,4.225-9.73    c-1.521-3.852-5.879-5.742-9.73-4.223l-27.602,10.891c-3.463,1.367-5.4,5.066-4.549,8.689l4.604,19.619l-89.965,12.521    l-5.412-16.266h3.994c4.143,0,7.5-3.357,7.5-7.5s-3.357-7.5-7.5-7.5h-31.211c-4.143,0-7.5,3.357-7.5,7.5s3.357,7.5,7.5,7.5h11.408    l6.111,18.369l-57.807,8.045l-8.789-26.414h5.205c4.143,0,7.5-3.357,7.5-7.5s-3.357-7.5-7.5-7.5H93.613    c-4.143,0-7.5,3.357-7.5,7.5s3.357,7.5,7.5,7.5h10.195l9.899,29.75c-0.178,0.158-0.365,0.305-0.529,0.48l-20.875,22.4    c-9.572-6.869-21.291-10.932-33.945-10.932C26.18,170.454,0,196.634,0,228.813c0,32.178,26.18,58.357,58.357,58.357    c29.637,0,54.168-22.211,57.861-50.857h105.078c0.318,0,0.633-0.025,0.943-0.066c0.02-0.002,0.041,0,0.061-0.004l-0.002-0.004    c1.771-0.24,3.432-1.102,4.645-2.488l69.461-79.439l4.662,19.877c-22.082,8.324-37.838,29.664-37.838,54.625    c0,32.178,26.18,58.357,58.357,58.357c32.18,0,58.359-26.18,58.359-58.357C379.945,196.634,353.766,170.454,321.586,170.454z     M15,228.813c0-23.908,19.451-43.359,43.357-43.359c8.705,0,16.813,2.588,23.611,7.021L52.871,223.7    c-2.035,2.186-2.582,5.367-1.391,8.105c1.191,2.738,3.893,4.508,6.877,4.508h42.697c-3.564,20.344-21.346,35.857-42.697,35.857    C34.451,272.171,15,252.722,15,228.813z M75.598,221.313L92.945,202.7c4.064,5.371,6.902,11.715,8.109,18.613H75.598z     M116.221,221.313c-1.445-11.199-6.061-21.418-12.938-29.707l15.797-16.953l15.525,46.66H116.221z M150.412,221.313l-17.189-51.67    l57.807-8.045l19.869,59.715H150.412z M224.277,214.013l-18.139-54.516l74.926-10.43L224.277,214.013z M278.229,228.813    c0-17.855,10.851-33.221,26.303-39.859l9.754,41.57c0.813,3.457,3.893,5.789,7.295,5.789c0.568,0,1.145-0.064,1.721-0.199    c4.033-0.947,6.535-4.982,5.588-9.016l-9.754-41.57c0.813-0.045,1.629-0.074,2.451-0.074c23.908,0,43.359,19.451,43.359,43.359    s-19.451,43.357-43.359,43.357C297.68,272.171,278.229,252.722,278.229,228.813z"></path>
	</g>
</g>
<g>
</g>
<g>
</g>
<g>
</g>
<g>
</g>
<g>
</g>
<g>
</g>
<g>
</g>
<g>
</g>
<g>
</g>
<g>
</g>
<g>
</g>
<g>
</g>
<g>
</g>
<g>
</g>
<g>
</g>
</svg>